<?xml version="1.0" encoding="UTF-8"?>
<svg width="48px" height="48px" viewBox="0 0 48 48" version="1.1" xmlns="http://www.w3.org/2000/svg" xmlns:xlink="http://www.w3.org/1999/xlink">
    <!-- Generator: Sketch 45.1 (43504) - http://www.bohemiancoding.com/sketch -->
    <title>stat48_navigation_refresh</title>
    <desc>Created with Sketch.</desc>
    <defs></defs>
    <g id="Page-1" stroke="none" stroke-width="1" fill="none" fill-rule="evenodd">
        <g id="icons48-Combined" transform="translate(-1164.000000, -280.000000)" fill-rule="nonzero" fill="#000000">
            <g id="24pt" transform="translate(1164.000000, 280.000000)">
                <path d="M13.7221759,30.2257307 C15.8280481,33.6840816 19.633796,35.9934983 23.9789371,35.9934983 C27.2252257,35.9934983 30.2615601,34.7011179 32.501828,32.4410039 C33.2794247,31.6565186 34.5457424,31.6509344 35.3302277,32.4285311 C36.1147129,33.2061278 36.1202972,34.4724454 35.3427005,35.2569307 C32.3587687,38.2672965 28.3032089,39.9934983 23.9789371,39.9934983 C17.6925861,39.9934983 12.252987,36.3681223 9.63686089,31.0940913 L7.26610033,31.598012 C7.02571926,31.6491066 6.77612359,31.6360258 6.54240019,31.5600845 C5.80704458,31.3211529 5.40461335,30.5313372 5.64354487,29.7959816 L8.51222297,20.9670982 L8.51222297,20.9670982 C8.58816431,20.7333748 8.72429041,20.523759 8.90691924,20.3593193 C9.4815178,19.8419484 10.3667339,19.8883406 10.8841048,20.4629392 L17.095803,27.361729 C17.2602428,27.5443578 17.3737123,27.7670544 17.4248069,28.0074354 C17.585564,28.7637378 17.1027791,29.5071614 16.3464767,29.6679184 L13.7221759,30.2257307 Z M34.2567612,17.7677676 C32.150889,14.3094167 28.3451411,12 24,12 C20.7537114,12 17.717377,13.2923804 15.4771091,15.5524944 C14.6995123,16.3369797 13.4331947,16.342564 12.6487094,15.5649672 C11.8642242,14.7873705 11.8586399,13.5210529 12.6362366,12.7365676 C15.6201684,9.72620183 19.6757282,8 24,8 C30.286351,8 35.7259501,11.625376 38.3420762,16.899407 L40.7128368,16.3954863 C40.9532178,16.3443918 41.2028135,16.3574725 41.4365369,16.4334138 C42.1718925,16.6723454 42.5743237,17.4621611 42.3353922,18.1975167 L39.4667141,27.0264001 L39.4667141,27.0264001 C39.3907728,27.2601235 39.2546467,27.4697393 39.0720179,27.634179 C38.4974193,28.1515499 37.6122032,28.1051577 37.0948323,27.5305591 L30.8831341,20.6317694 C30.7186943,20.4491405 30.6052247,20.2264439 30.5541302,19.9860629 C30.3933731,19.2297605 30.876158,18.4863369 31.6324604,18.3255799 L31.6324604,18.3255799 L34.2567612,17.7677676 Z" id="Combined-Shape"></path>
            </g>
        </g>
    </g>
</svg>